<?xml version="1.0" encoding="UTF-8" standalone="no"?>
<!-- Created with Inkscape (http://www.inkscape.org/) -->

<svg
   width="31.771955mm"
   height="26.08593mm"
   viewBox="0 0 31.771955 26.08593"
   version="1.1"
   id="svg48096"
   inkscape:version="1.1 (c68e22c387, 2021-05-23)"
   sodipodi:docname="garden_barter_logo.svg"
   xmlns:inkscape="http://www.inkscape.org/namespaces/inkscape"
   xmlns:sodipodi="http://sodipodi.sourceforge.net/DTD/sodipodi-0.dtd"
   xmlns="http://www.w3.org/2000/svg"
   xmlns:svg="http://www.w3.org/2000/svg">
  <sodipodi:namedview
     id="namedview48098"
     pagecolor="#ffffff"
     bordercolor="#666666"
     borderopacity="1.0"
     inkscape:pageshadow="2"
     inkscape:pageopacity="0.0"
     inkscape:pagecheckerboard="0"
     inkscape:document-units="mm"
     showgrid="false"
     inkscape:zoom="3.9105941"
     inkscape:cx="40.147353"
     inkscape:cy="62.394612"
     inkscape:window-width="1500"
     inkscape:window-height="978"
     inkscape:window-x="-6"
     inkscape:window-y="-6"
     inkscape:window-maximized="1"
     inkscape:current-layer="g47917" />
  <defs
     id="defs48093" />
  <g
     inkscape:label="Layer 1"
     inkscape:groupmode="layer"
     id="layer1"
     transform="translate(-117.85249,-76.03227)">
    <g
       aria-label="GB"
       id="text1244"
       style="font-size:46.2599px;font-family:Raleway;-inkscape-font-specification:Raleway;letter-spacing:0px;word-spacing:0px;stroke-width:0.770997"
       transform="translate(23.557569,-51.597623)">
      <g
         id="g47917">
        <g
           aria-label="GB"
           id="text21387"
           style="font-size:15.875px;line-height:1.25;font-family:'Fredoka One';-inkscape-font-specification:'Fredoka One, @wght=400';font-variation-settings:'wght' 400;fill:#7db800;fill-opacity:1;stroke:#7db800;stroke-width:0.203993;stroke-opacity:1">
          <path
             d="m 105.73753,139.52266 h 2.794 q 0.85725,0.0317 1.04775,0.4445 0.15875,0.30163 0.15875,0.889 v 3.4925 q 0,0.508 -0.4445,0.96838 -1.3335,1.38112 -4.0005,1.38112 -2.36537,0 -4.11162,-1.778 -1.746251,-1.79387 -1.746251,-4.318 0,-2.52412 1.778001,-4.20687 1.778,-1.69863 4.191,-1.69863 1.87325,0 3.54012,1.23825 0.42863,0.3175 0.42863,0.71438 0,0.381 -0.36513,0.889 -0.61912,0.84137 -1.12712,0.84137 -0.30163,0 -0.96838,-0.42862 -0.66675,-0.4445 -1.5875,-0.4445 -1.2065,0 -2.14312,0.85725 -0.93663,0.84137 -0.93663,2.2225 0,1.36525 0.9525,2.33362 0.9525,0.9525 2.159,0.9525 0.87313,0 1.57163,-0.28575 v -1.73037 h -1.25413 q -0.49212,0 -0.6985,-0.127 -0.20637,-0.127 -0.26987,-0.36513 -0.0635,-0.254 -0.0635,-0.66675 0,-0.42862 0.0635,-0.68262 0.0794,-0.254 0.26987,-0.34925 0.28575,-0.14288 0.762,-0.14288 z"
             id="path36747"
             style="fill:#7db800;fill-opacity:1;stroke:#7db800;stroke-opacity:1" />
          <path
             d="m 119.82394,140.30054 q 0.93662,1.11125 0.93662,2.49237 -0.0318,1.5875 -1.09537,2.667 -1.04775,1.06363 -2.55588,1.06363 h -4.17512 q -1.11125,0 -1.30175,-0.60325 -0.0952,-0.26988 -0.0952,-0.8255 v -8.81063 q 0,-0.381 0.0159,-0.55562 0.0318,-0.17463 0.15875,-0.41275 0.22225,-0.42863 1.23825,-0.42863 h 4.0005 q 1.4605,0 2.44475,1.016 1.03188,1.03188 1.03188,2.4765 0,1.04775 -0.60325,1.92088 z m -1.87325,2.33362 q 0,-0.381 -0.0953,-0.60325 -0.0794,-0.22225 -0.28575,-0.3175 -0.3175,-0.127 -0.889,-0.127 -0.5715,0 -0.85725,-0.22225 -0.28575,-0.22225 -0.28575,-0.90487 0,-0.6985 0.28575,-0.92075 0.30162,-0.22225 0.98425,-0.22225 0.635,0 0.762,-0.33338 0.0476,-0.17462 0.0476,-0.5715 0,-0.39687 -0.26987,-0.55562 -0.254,-0.15875 -0.77788,-0.15875 h -2.2225 v 6.01662 h 2.6035 q 1.00013,0 1.00013,-1.0795 z"
             id="path36749"
             style="fill:#7db800;fill-opacity:1;stroke:#7db800;stroke-opacity:1" />
        </g>
        <g
           id="g27486"
           style="stroke:#7db800;stroke-opacity:1"
           transform="translate(0,-5.2916667)">
          <g
             id="g37027"
             transform="translate(-1.0583333)">
            <g
               id="g37354">
              <path
                 style="fill:none;stroke:#7db800;stroke-width:2.065;stroke-linecap:round;stroke-linejoin:round;stroke-miterlimit:4;stroke-dasharray:none;stroke-opacity:1;paint-order:stroke markers fill"
                 d="m 125.9574,153.56281 0.13531,-17.59334 -26.01161,0.0121"
                 id="path27020"
                 sodipodi:nodetypes="ccc" />
              <path
                 style="fill:none;stroke:#7db800;stroke-width:2.065;stroke-linecap:round;stroke-linejoin:round;stroke-miterlimit:4;stroke-dasharray:none;stroke-opacity:1"
                 d="m 100.77741,133.95406 -2.812967,2.02751 2.542337,2.43793"
                 id="path27294"
                 sodipodi:nodetypes="ccc" />
            </g>
          </g>
          <path
             d="m 95.46273,138.36624 -0.13531,17.59334 28.12826,-0.0121 m -2.81297,2.02751 2.81297,-2.02751 -2.54234,-2.43793"
             style="fill:none;stroke:#7db800;stroke-width:2.065;stroke-linecap:round;stroke-linejoin:round;stroke-miterlimit:4;stroke-dasharray:none;stroke-opacity:1;paint-order:stroke markers fill"
             id="path35796"
             sodipodi:nodetypes="cccccc" />
        </g>
      </g>
    </g>
    <circle
       id="path48386"
       style="fill:#dff1e8;stroke:#dff1e8;stroke-width:0.264583"
       cx="-32.619106"
       cy="41.391327"
       r="1.1165938" />
  </g>
</svg>
